<svg width="114" height="122" fill="none" xmlns="http://www.w3.org/2000/svg"><g clip-path="url(#a)"><path d="M99.868 22.563 65.492 2.72a20.31 20.31 0 0 0-20.323 0L10.814 22.563A20.31 20.31 0 0 0 .658 40.155v39.683a20.298 20.298 0 0 0 10.156 17.589l34.355 19.856a20.304 20.304 0 0 0 20.31 0l34.375-19.842a20.3 20.3 0 0 0 10.171-17.603V40.155a20.313 20.313 0 0 0-10.157-17.592ZM55.358 89.77a80.403 80.403 0 0 0-27.3-45.514 80.318 80.318 0 0 0 27.285 4.748 80.367 80.367 0 0 0 27.272-4.748A80.382 80.382 0 0 0 55.343 89.77h.014Z" fill="#43C9ED"/></g><g clip-path="url(#b)"><path d="M102.868 24.563 68.492 4.72a20.31 20.31 0 0 0-20.323 0L13.814 24.563A20.31 20.31 0 0 0 3.658 42.155v39.683a20.298 20.298 0 0 0 10.156 17.589l34.355 19.856a20.304 20.304 0 0 0 20.31 0l34.375-19.842a20.3 20.3 0 0 0 10.171-17.603V42.155a20.313 20.313 0 0 0-10.157-17.592ZM58.358 91.77a80.403 80.403 0 0 0-27.3-45.514 80.318 80.318 0 0 0 27.285 4.748 80.367 80.367 0 0 0 27.272-4.748A80.382 80.382 0 0 0 58.343 91.77h.014Z" fill="#fff"/></g><defs><clipPath id="a"><path fill="#fff" transform="translate(.658)" d="M0 0h109.367v120H0z"/></clipPath><clipPath id="b"><path fill="#fff" transform="translate(3.658 2)" d="M0 0h109.367v120H0z"/></clipPath></defs></svg>