<svg width="332" height="92" viewBox="0 0 332 92" fill="none" xmlns="http://www.w3.org/2000/svg">
<g filter="url(#filter0_i_32:47)">
<path d="M201.831 89.0605C204.476 89.0605 206.044 88.1198 207.455 86.6108L205.535 84.6707C204.457 85.6506 203.496 86.2777 201.929 86.2777C199.577 86.2777 197.951 84.318 197.951 81.9664V81.9272C197.951 79.5755 199.616 77.655 201.929 77.655C203.3 77.655 204.378 78.2429 205.437 79.2032L207.357 76.9887C206.083 75.7345 204.535 74.8723 201.948 74.8723C197.735 74.8723 194.795 78.0666 194.795 81.9664V82.0056C194.795 85.9445 197.794 89.0605 201.831 89.0605Z" fill="#43C9ED"/>
<path d="M214.618 89.0605C217.891 89.0605 220.321 86.6108 220.321 83.5929V83.5537C220.321 80.5358 217.91 78.1254 214.657 78.1254C211.385 78.1254 208.954 80.575 208.954 83.5929V83.6321C208.954 86.65 211.365 89.0605 214.618 89.0605ZM214.657 86.4933C213.011 86.4933 211.894 85.1411 211.894 83.5929V83.5537C211.894 82.0056 212.913 80.6926 214.618 80.6926C216.264 80.6926 217.381 82.0448 217.381 83.5929V83.6321C217.381 85.1803 216.362 86.4933 214.657 86.4933Z" fill="#43C9ED"/>
<path d="M222.576 88.8253H225.554V82.9658C225.554 81.5548 226.24 80.8297 227.357 80.8297C228.474 80.8297 229.101 81.5548 229.101 82.9658V88.8253H232.08V82.9658C232.08 81.5548 232.766 80.8297 233.883 80.8297C235 80.8297 235.627 81.5548 235.627 82.9658V88.8253H238.606V81.986C238.606 79.458 237.273 78.1254 235.059 78.1254C233.628 78.1254 232.531 78.7133 231.61 79.7911C231.061 78.7329 230.022 78.1254 228.651 78.1254C227.142 78.1254 226.24 78.9288 225.554 79.8107V78.3213H222.576V88.8253Z" fill="#43C9ED"/>
<path d="M241.353 77.1651H244.489V74.5195H241.353V77.1651ZM241.432 88.8253H244.41V78.3213H241.432V88.8253Z" fill="#43C9ED"/>
<path d="M247.306 88.8253H250.285V82.9658C250.285 81.5548 251.01 80.8297 252.146 80.8297C253.283 80.8297 253.949 81.5548 253.949 82.9658V88.8253H256.928V82.0252C256.928 79.6147 255.615 78.1254 253.361 78.1254C251.852 78.1254 250.971 78.9288 250.285 79.8107V78.3213H247.306V88.8253Z" fill="#43C9ED"/>
<path d="M264.317 92C266.355 92 267.864 91.5689 268.844 90.589C269.726 89.7072 270.177 88.3354 270.177 86.4541V78.3213H267.198V79.6931C266.394 78.8113 265.434 78.1254 263.808 78.1254C261.397 78.1254 259.143 79.8891 259.143 83.0246V83.0638C259.143 86.1797 261.358 87.963 263.808 87.963C265.395 87.963 266.355 87.3163 267.237 86.2581V86.7676C267.237 88.6489 266.277 89.6288 264.239 89.6288C262.847 89.6288 261.769 89.276 260.692 88.6685L259.673 90.9026C261.005 91.6081 262.612 92 264.317 92ZM264.67 85.4938C263.22 85.4938 262.122 84.514 262.122 83.0638V83.0246C262.122 81.594 263.22 80.5946 264.67 80.5946C266.12 80.5946 267.237 81.594 267.237 83.0246V83.0638C267.237 84.4944 266.12 85.4938 264.67 85.4938Z" fill="#43C9ED"/>
<path d="M284.102 89.0213C287.061 89.0213 289.139 87.4927 289.139 84.7687V84.7295C289.139 82.3387 287.571 81.3393 284.788 80.6142C282.417 80.0067 281.829 79.7127 281.829 78.8113V78.7721C281.829 78.1058 282.437 77.5767 283.593 77.5767C284.749 77.5767 285.944 78.0862 287.159 78.9288L288.727 76.6556C287.336 75.5386 285.631 74.9115 283.632 74.9115C280.83 74.9115 278.831 76.5576 278.831 79.0464V79.0856C278.831 81.8096 280.614 82.5739 283.377 83.2794C285.67 83.8673 286.14 84.2592 286.14 85.0235V85.0627C286.14 85.8662 285.396 86.3561 284.161 86.3561C282.593 86.3561 281.3 85.7094 280.065 84.6903L278.282 86.8264C279.928 88.2962 282.025 89.0213 284.102 89.0213Z" fill="#43C9ED"/>
<path d="M296.696 89.0605C299.969 89.0605 302.399 86.6108 302.399 83.5929V83.5537C302.399 80.5358 299.989 78.1254 296.735 78.1254C293.463 78.1254 291.033 80.575 291.033 83.5929V83.6321C291.033 86.65 293.443 89.0605 296.696 89.0605ZM296.735 86.4933C295.089 86.4933 293.972 85.1411 293.972 83.5929V83.5537C293.972 82.0056 294.991 80.6926 296.696 80.6926C298.342 80.6926 299.459 82.0448 299.459 83.5929V83.6321C299.459 85.1803 298.44 86.4933 296.735 86.4933Z" fill="#43C9ED"/>
<path d="M309.808 89.0605C313.08 89.0605 315.511 86.6108 315.511 83.5929V83.5537C315.511 80.5358 313.1 78.1254 309.847 78.1254C306.574 78.1254 304.144 80.575 304.144 83.5929V83.6321C304.144 86.65 306.555 89.0605 309.808 89.0605ZM309.847 86.4933C308.201 86.4933 307.084 85.1411 307.084 83.5929V83.5537C307.084 82.0056 308.103 80.6926 309.808 80.6926C311.454 80.6926 312.571 82.0448 312.571 83.5929V83.6321C312.571 85.1803 311.552 86.4933 309.847 86.4933Z" fill="#43C9ED"/>
<path d="M317.765 88.8253H320.744V82.9658C320.744 81.5548 321.469 80.8297 322.606 80.8297C323.742 80.8297 324.409 81.5548 324.409 82.9658V88.8253H327.387V82.0252C327.387 79.6147 326.074 78.1254 323.821 78.1254C322.312 78.1254 321.43 78.9288 320.744 79.8107V78.3213H317.765V88.8253Z" fill="#43C9ED"/>
</g>
<g filter="url(#filter1_f_32:47)">
<path d="M20.9669 61.7181C27.1808 61.7181 30.8123 58.4094 33.6368 54.7779V60.9111H45.9032V17.6558H33.6368V41.7852C33.6368 47.5956 30.6509 50.5815 25.9703 50.5815C21.2897 50.5815 18.5459 47.5956 18.5459 41.7852V17.6558H6.27943V45.6588C6.27943 55.5849 11.6863 61.7181 20.9669 61.7181Z" fill="#267AC6"/>
<path d="M56.8822 60.9111H69.1486V44.9325C69.1486 34.6029 74.1521 29.6802 82.3028 29.6802H82.9484V16.8488C75.6854 16.526 71.6503 20.3996 69.1486 26.3714V17.6558H56.8822V60.9111Z" fill="#267AC6"/>
<path d="M109.928 61.8795C117.756 61.8795 123.566 58.8129 127.601 53.8095L120.58 47.5956C117.191 50.7429 114.205 52.0341 110.089 52.0341C104.602 52.0341 100.728 49.1289 99.5178 43.5606H129.619C129.7 42.4308 129.78 41.301 129.78 40.3326C129.78 28.0661 123.163 16.8488 108.718 16.8488C96.1283 16.8488 87.332 27.017 87.332 39.3642V39.5256C87.332 52.7604 96.9353 61.8795 109.928 61.8795ZM99.3564 35.8941C100.325 30.3258 103.633 26.6942 108.718 26.6942C113.882 26.6942 117.11 30.4065 117.837 35.8941H99.3564Z" fill="#267AC6"/>
<path d="M159.339 61.8795C167.974 61.8795 172.816 58.5708 177.013 53.9709L169.83 46.7079C166.844 49.5324 164.02 51.3078 159.904 51.3078C153.206 51.3078 148.929 45.9816 148.929 39.3642V39.2028C148.929 32.8275 153.287 27.4205 159.42 27.4205C163.778 27.4205 166.522 29.2767 169.265 32.1819L176.771 24.1118C172.735 19.5926 167.651 16.8488 159.501 16.8488C146.266 16.8488 136.824 27.017 136.824 39.3642V39.5256C136.824 51.8727 146.347 61.8795 159.339 61.8795Z" fill="#267AC6"/>
<path d="M185.025 60.9111H197.292V47.757L201.569 43.2378L212.867 60.9111H226.909L209.881 34.6836L226.344 17.6558H211.656L197.292 33.3924V2H185.025V60.9111Z" fill="#267AC6"/>
<path d="M251.958 61.8795C265.435 61.8795 275.442 51.792 275.442 39.3642V39.2028C275.442 26.7749 265.516 16.8488 252.12 16.8488C238.643 16.8488 228.636 26.9363 228.636 39.3642V39.5256C228.636 51.9534 238.562 61.8795 251.958 61.8795ZM252.12 51.3078C245.341 51.3078 240.741 45.7395 240.741 39.3642V39.2028C240.741 32.8275 244.938 27.4205 251.958 27.4205C258.737 27.4205 263.337 32.9889 263.337 39.3642V39.5256C263.337 45.9009 259.141 51.3078 252.12 51.3078Z" fill="#267AC6"/>
<path d="M284.324 60.9111H296.591V36.7818C296.591 30.9714 299.577 27.9854 304.257 27.9854C308.938 27.9854 311.682 30.9714 311.682 36.7818V60.9111H323.948V32.9082C323.948 22.982 318.541 16.8488 309.261 16.8488C303.047 16.8488 299.415 20.1575 296.591 23.789V17.6558H284.324V60.9111Z" fill="#267AC6"/>
</g>
<g filter="url(#filter2_di_32:47)">
<path d="M17.0257 64.9784C23.4146 64.9784 27.1484 61.5494 30.0524 57.7858V64.1421H42.6643V19.3138H30.0524V44.3206C30.0524 50.3423 26.9824 53.4368 22.17 53.4368C17.3575 53.4368 14.5365 50.3423 14.5365 44.3206V19.3138H1.92456V48.3351C1.92456 58.6222 7.48375 64.9784 17.0257 64.9784Z" fill="white"/>
<path d="M53.9525 64.1421H66.5644V47.5824C66.5644 36.8771 71.7088 31.7754 80.089 31.7754H80.7528V18.4775C73.2853 18.143 69.1366 22.1574 66.5644 28.3464V19.3138H53.9525V64.1421Z" fill="white"/>
<path d="M108.492 65.1457C116.541 65.1457 122.515 61.9676 126.663 56.7822L119.445 50.3423C115.96 53.6041 112.89 54.9422 108.658 54.9422C103.016 54.9422 99.0335 51.9314 97.7889 46.1606H128.738C128.821 44.9897 128.904 43.8188 128.904 42.8152C128.904 30.1027 122.1 18.4775 107.248 18.4775C94.304 18.4775 85.2599 29.0155 85.2599 41.8116V41.9789C85.2599 55.6949 95.1337 65.1457 108.492 65.1457ZM97.6229 38.2153C98.6186 32.4445 102.02 28.6809 107.248 28.6809C112.558 28.6809 115.877 32.5281 116.624 38.2153H97.6229Z" fill="white"/>
<path d="M159.295 65.1457C168.173 65.1457 173.152 61.7166 177.466 56.9495L170.082 49.4223C167.012 52.3496 164.108 54.1895 159.876 54.1895C152.989 54.1895 148.592 48.6696 148.592 41.8116V41.6443C148.592 35.0372 153.072 29.4336 159.378 29.4336C163.859 29.4336 166.68 31.3572 169.501 34.3681L177.217 26.0046C173.069 21.3211 167.841 18.4775 159.461 18.4775C145.854 18.4775 136.146 29.0155 136.146 41.8116V41.9789C136.146 54.775 145.937 65.1457 159.295 65.1457Z" fill="white"/>
<path d="M185.705 64.1421H198.317V50.5096L202.714 45.8261L214.33 64.1421H228.768L211.26 36.9608L228.187 19.3138H213.086L198.317 35.6226V3.08871H185.705V64.1421Z" fill="white"/>
<path d="M254.523 65.1457C268.379 65.1457 278.668 54.6913 278.668 41.8116V41.6443C278.668 28.7646 268.462 18.4775 254.689 18.4775C240.832 18.4775 230.544 28.9318 230.544 41.8116V41.9789C230.544 54.8586 240.749 65.1457 254.523 65.1457ZM254.689 54.1895C247.719 54.1895 242.99 48.4187 242.99 41.8116V41.6443C242.99 35.0372 247.304 29.4336 254.523 29.4336C261.493 29.4336 266.222 35.2044 266.222 41.8116V41.9789C266.222 48.586 261.908 54.1895 254.689 54.1895Z" fill="white"/>
<path d="M287.8 64.1421H300.412V39.1353C300.412 33.1136 303.482 30.0191 308.295 30.0191C313.107 30.0191 315.928 33.1136 315.928 39.1353V64.1421H328.54V35.1208C328.54 24.8337 322.981 18.4775 313.439 18.4775C307.05 18.4775 303.316 21.9065 300.412 25.6701V19.3138H287.8V64.1421Z" fill="white"/>
</g>
<defs>
<filter id="filter0_i_32:47" x="194.795" y="74.5195" width="132.592" height="18.4805" filterUnits="userSpaceOnUse" color-interpolation-filters="sRGB">
<feFlood flood-opacity="0" result="BackgroundImageFix"/>
<feBlend mode="normal" in="SourceGraphic" in2="BackgroundImageFix" result="shape"/>
<feColorMatrix in="SourceAlpha" type="matrix" values="0 0 0 0 0 0 0 0 0 0 0 0 0 0 0 0 0 0 127 0" result="hardAlpha"/>
<feOffset dy="1"/>
<feGaussianBlur stdDeviation="0.5"/>
<feComposite in2="hardAlpha" operator="arithmetic" k2="-1" k3="1"/>
<feColorMatrix type="matrix" values="0 0 0 0 0.14902 0 0 0 0 0.478431 0 0 0 0 0.776471 0 0 0 1 0"/>
<feBlend mode="normal" in2="shape" result="effect1_innerShadow_32:47"/>
</filter>
<filter id="filter1_f_32:47" x="4.27943" y="0" width="321.669" height="63.8795" filterUnits="userSpaceOnUse" color-interpolation-filters="sRGB">
<feFlood flood-opacity="0" result="BackgroundImageFix"/>
<feBlend mode="normal" in="SourceGraphic" in2="BackgroundImageFix" result="shape"/>
<feGaussianBlur stdDeviation="1" result="effect1_foregroundBlur_32:47"/>
</filter>
<filter id="filter2_di_32:47" x="0.924561" y="1.08871" width="330.616" height="66.0569" filterUnits="userSpaceOnUse" color-interpolation-filters="sRGB">
<feFlood flood-opacity="0" result="BackgroundImageFix"/>
<feColorMatrix in="SourceAlpha" type="matrix" values="0 0 0 0 0 0 0 0 0 0 0 0 0 0 0 0 0 0 127 0" result="hardAlpha"/>
<feOffset dx="1"/>
<feGaussianBlur stdDeviation="1"/>
<feComposite in2="hardAlpha" operator="out"/>
<feColorMatrix type="matrix" values="0 0 0 0 0.160784 0 0 0 0 0.0392157 0 0 0 0 0.388235 0 0 0 1 0"/>
<feBlend mode="normal" in2="BackgroundImageFix" result="effect1_dropShadow_32:47"/>
<feBlend mode="normal" in="SourceGraphic" in2="effect1_dropShadow_32:47" result="shape"/>
<feColorMatrix in="SourceAlpha" type="matrix" values="0 0 0 0 0 0 0 0 0 0 0 0 0 0 0 0 0 0 127 0" result="hardAlpha"/>
<feOffset dy="1"/>
<feGaussianBlur stdDeviation="1"/>
<feComposite in2="hardAlpha" operator="arithmetic" k2="-1" k3="1"/>
<feColorMatrix type="matrix" values="0 0 0 0 0.262745 0 0 0 0 0.788235 0 0 0 0 0.929412 0 0 0 1 0"/>
<feBlend mode="normal" in2="shape" result="effect2_innerShadow_32:47"/>
</filter>
</defs>
</svg>
