<?xml version="1.0" encoding="UTF-8"?>
<svg xmlns="http://www.w3.org/2000/svg" xmlns:xlink="http://www.w3.org/1999/xlink" viewBox="0 0 42 42" width="42px" height="42px">
<defs>
<radialGradient id="radial0" gradientUnits="userSpaceOnUse" cx="69.610527" cy="149.979141" fx="69.610527" fy="149.979141" r="159.279205" gradientTransform="matrix(0.244186,0,0,0.244186,0,0)">
<stop offset="0" style="stop-color:rgb(100%,86.666667%,33.333334%);stop-opacity:1;"/>
<stop offset="0.328" style="stop-color:rgb(100%,32.941177%,24.705882%);stop-opacity:1;"/>
<stop offset="0.348" style="stop-color:rgb(98.823529%,32.156864%,27.058825%);stop-opacity:1;"/>
<stop offset="0.504" style="stop-color:rgb(90.196079%,27.843139%,44.313726%);stop-opacity:1;"/>
<stop offset="0.643" style="stop-color:rgb(83.529413%,24.313726%,56.862748%);stop-opacity:1;"/>
<stop offset="0.761" style="stop-color:rgb(80.000001%,22.352941%,64.313728%);stop-opacity:1;"/>
<stop offset="0.841" style="stop-color:rgb(78.431374%,21.568628%,67.058825%);stop-opacity:1;"/>
</radialGradient>
<radialGradient id="radial1" gradientUnits="userSpaceOnUse" cx="42.670818" cy="20.5142" fx="42.670818" fy="20.5142" r="105.76162" gradientTransform="matrix(0.244186,0,0,0.244186,0,0)">
<stop offset="0" style="stop-color:rgb(25.490198%,40.784314%,78.823531%);stop-opacity:1;"/>
<stop offset="0.999" style="stop-color:rgb(25.490198%,40.784314%,78.823531%);stop-opacity:0;"/>
</radialGradient>
</defs>
<g id="surface28390059">
<path style=" stroke:none;fill-rule:nonzero;fill:rgb(100%,99.215686%,99.215686%);fill-opacity:1;" d="M 7.351562 42 C 3.289062 42 0 38.710938 0 34.648438 L 0 7.351562 C 0 3.289062 3.289062 0 7.351562 0 L 34.648438 0 C 38.710938 0 42 3.289062 42 7.351562 L 42 34.648438 C 42 38.710938 38.710938 42 34.648438 42 Z M 7.351562 42 "/>
<path style=" stroke:none;fill-rule:nonzero;fill:url(#radial0);" d="M 29.675781 36.582031 L 12.351562 36.601562 C 8.539062 36.605469 5.417969 33.488281 5.414062 29.675781 L 5.398438 12.351562 C 5.394531 8.539062 8.511719 5.417969 12.320312 5.414062 L 29.648438 5.398438 C 33.457031 5.394531 36.578125 8.511719 36.582031 12.320312 L 36.601562 29.648438 C 36.605469 33.460938 33.488281 36.582031 29.675781 36.582031 Z M 29.675781 36.582031 "/>
<path style=" stroke:none;fill-rule:nonzero;fill:url(#radial1);" d="M 29.675781 36.582031 L 12.351562 36.601562 C 8.539062 36.605469 5.417969 33.488281 5.414062 29.675781 L 5.398438 12.351562 C 5.394531 8.539062 8.511719 5.417969 12.320312 5.414062 L 29.648438 5.398438 C 33.457031 5.394531 36.578125 8.511719 36.582031 12.320312 L 36.601562 29.648438 C 36.605469 33.460938 33.488281 36.582031 29.675781 36.582031 Z M 29.675781 36.582031 "/>
<path style=" stroke:none;fill-rule:nonzero;fill:rgb(100%,100%,100%);fill-opacity:1;" d="M 21 27.0625 C 17.65625 27.0625 14.9375 24.34375 14.9375 21 C 14.9375 17.65625 17.65625 14.9375 21 14.9375 C 24.34375 14.9375 27.0625 17.65625 27.0625 21 C 27.0625 24.34375 24.34375 27.0625 21 27.0625 Z M 21 16.667969 C 18.613281 16.667969 16.667969 18.613281 16.667969 21 C 16.667969 23.386719 18.613281 25.332031 21 25.332031 C 23.386719 25.332031 25.332031 23.386719 25.332031 21 C 25.332031 18.613281 23.386719 16.667969 21 16.667969 Z M 21 16.667969 "/>
<path style=" stroke:none;fill-rule:nonzero;fill:rgb(100%,100%,100%);fill-opacity:1;" d="M 28.796875 14.503906 C 28.796875 15.222656 28.214844 15.800781 27.496094 15.800781 C 26.777344 15.800781 26.199219 15.222656 26.199219 14.503906 C 26.199219 13.785156 26.777344 13.203125 27.496094 13.203125 C 28.214844 13.203125 28.796875 13.785156 28.796875 14.503906 Z M 28.796875 14.503906 "/>
<path style=" stroke:none;fill-rule:nonzero;fill:rgb(100%,100%,100%);fill-opacity:1;" d="M 26.199219 32.261719 L 15.800781 32.261719 C 12.460938 32.261719 9.738281 29.542969 9.738281 26.199219 L 9.738281 15.800781 C 9.738281 12.457031 12.460938 9.738281 15.800781 9.738281 L 26.199219 9.738281 C 29.539062 9.738281 32.261719 12.457031 32.261719 15.800781 L 32.261719 26.199219 C 32.261719 29.542969 29.539062 32.261719 26.199219 32.261719 Z M 15.800781 11.472656 C 13.414062 11.472656 11.472656 13.414062 11.472656 15.800781 L 11.472656 26.199219 C 11.472656 28.585938 13.414062 30.527344 15.800781 30.527344 L 26.199219 30.527344 C 28.585938 30.527344 30.527344 28.585938 30.527344 26.199219 L 30.527344 15.800781 C 30.527344 13.414062 28.585938 11.472656 26.199219 11.472656 Z M 15.800781 11.472656 "/>
</g>
</svg>
