<svg width="51" height="50" viewBox="0 0 51 50" fill="none" xmlns="http://www.w3.org/2000/svg">
<rect x="0.450012" width="50" height="50" rx="10" fill="white"/>
<path d="M37.2587 36.9703H32.1707V29.0807C32.1707 27.1994 32.1368 24.7775 29.5244 24.7775C26.8744 24.7775 26.469 26.8273 26.469 28.9437V36.9698H21.3809V20.7456H26.2654V22.9628H26.3338C26.8226 22.1352 27.529 21.4545 28.3777 20.9929C29.2264 20.5314 30.1856 20.3065 31.1531 20.342C36.3101 20.342 37.2609 23.7006 37.2609 28.07L37.2587 36.9703ZM15.64 18.5279C15.056 18.528 14.4851 18.3566 13.9995 18.0355C13.5138 17.7143 13.1353 17.2578 12.9118 16.7236C12.6882 16.1894 12.6296 15.6016 12.7434 15.0345C12.8573 14.4673 13.1384 13.9464 13.5512 13.5374C13.9641 13.1285 14.4902 12.8499 15.0629 12.737C15.6356 12.6241 16.2293 12.6819 16.7689 12.9031C17.3084 13.1243 17.7696 13.4989 18.0942 13.9796C18.4187 14.4603 18.592 15.0256 18.5921 15.6038C18.5922 15.9877 18.5158 16.3679 18.3675 16.7226C18.2192 17.0774 18.0018 17.3997 17.7277 17.6712C17.4535 17.9427 17.1281 18.1581 16.7698 18.3051C16.4116 18.4521 16.0277 18.5278 15.64 18.5279ZM18.184 36.9703H13.0907V20.7456H18.184V36.9703ZM39.7953 8.00232H10.5339C9.86979 7.9949 9.2298 8.24886 8.75466 8.70839C8.27953 9.16793 8.00811 9.79545 8 10.453V39.5464C8.00783 40.2044 8.27909 40.8323 8.75421 41.2923C9.22933 41.7523 9.86946 42.0068 10.5339 41.9998H39.7953C40.4611 42.0081 41.1031 41.7543 41.5801 41.2943C42.0571 40.8343 42.3301 40.2057 42.3393 39.5464V10.451C42.3299 9.79204 42.0566 9.16381 41.5796 8.70429C41.1026 8.24476 40.4608 7.99153 39.7953 8.00022" fill="#0073B1"/>
</svg>
