<svg width="51" height="50" viewBox="0 0 51 50" fill="none" xmlns="http://www.w3.org/2000/svg">
<rect x="0.700012" width="50" height="50" rx="10" fill="white"/>
<path d="M18.5795 41.483C33.6746 41.483 41.9295 28.9872 41.9295 18.1512C41.9295 17.7963 41.9223 17.443 41.9064 17.0912C43.5088 15.9337 44.9015 14.4893 46 12.8449C44.5296 13.498 42.9472 13.9377 41.2872 14.1359C42.9815 13.1207 44.2823 11.5148 44.896 9.60033C43.3104 10.5396 41.5544 11.2223 39.6848 11.5908C38.1872 9.99693 36.0552 9 33.6944 9C29.1624 9 25.4873 12.6724 25.4873 17.1991C25.4873 17.8426 25.5593 18.4685 25.7001 19.0689C18.8794 18.726 12.8313 15.4629 8.78352 10.5012C8.07873 11.7131 7.67233 13.1208 7.67233 14.6228C7.67233 17.4678 9.12117 19.9794 11.3244 21.4487C9.97794 21.4071 8.71312 21.0378 7.60764 20.4231C7.60643 20.4575 7.60642 20.491 7.60642 20.5278C7.60642 24.4991 10.4352 27.8149 14.1904 28.5662C13.5008 28.7541 12.7752 28.8548 12.0264 28.8548C11.4984 28.8548 10.984 28.8029 10.484 28.7069C11.5288 31.9651 14.5584 34.3362 18.1503 34.4024C15.3415 36.6023 11.8031 37.9125 7.95756 37.9125C7.29596 37.9125 6.64237 37.8749 6 37.799C9.63203 40.1252 13.9447 41.4825 18.58 41.4825" fill="#1DA1F2"/>
</svg>
