<svg width="51" height="50" viewBox="0 0 51 50" fill="none" xmlns="http://www.w3.org/2000/svg">
<rect x="0.950012" width="50" height="50" rx="10" fill="white"/>
<path d="M44.2173 15.3812C43.7791 13.6682 42.4957 12.3176 40.8681 11.8565C37.8944 11 25.9999 11 25.9999 11C25.9999 11 14.1054 11 11.1318 11.8235C9.53541 12.2847 8.22075 13.6682 7.78253 15.3812C7 18.5106 7 25 7 25C7 25 7 31.5224 7.78253 34.6188C8.22075 36.3318 9.50411 37.6824 11.1318 38.1435C14.1367 39 25.9999 39 25.9999 39C25.9999 39 37.8944 39 40.8681 38.1765C42.4957 37.7153 43.7791 36.3647 44.2173 34.6518C44.9998 31.5224 44.9998 25.0329 44.9998 25.0329C44.9998 25.0329 45.0311 18.5106 44.2173 15.3812Z" fill="#FF0000"/>
<path d="M32.1037 25L22.2125 19.0047V30.9953L32.1037 25Z" fill="white"/>
</svg>
