<?xml version="1.0" encoding="UTF-8"?>
<svg xmlns="http://www.w3.org/2000/svg" xmlns:xlink="http://www.w3.org/1999/xlink" viewBox="0 0 42 42" width="42px" height="42px">
<g id="surface28415368">
<path style=" stroke:none;fill-rule:nonzero;fill:rgb(100%,100%,100%);fill-opacity:1;" d="M 7.351562 42 C 3.289062 42 0 38.710938 0 34.648438 L 0 7.351562 C 0 3.289062 3.289062 0 7.351562 0 L 34.648438 0 C 38.710938 0 42 3.289062 42 7.351562 L 42 34.648438 C 42 38.710938 38.710938 42 34.648438 42 Z M 7.351562 42 "/>
<path style=" stroke:none;fill-rule:nonzero;fill:rgb(100%,23.921569%,0%);fill-opacity:1;" d="M 37.574219 29.546875 C 37.230469 31.359375 35.761719 32.742188 33.949219 33 C 31.101562 33.429688 26.351562 33.949219 21 33.949219 C 15.734375 33.949219 10.984375 33.429688 8.050781 33 C 6.238281 32.742188 4.769531 31.359375 4.425781 29.546875 C 4.078125 27.5625 3.734375 24.625 3.734375 21 C 3.734375 17.375 4.078125 14.4375 4.425781 12.453125 C 4.769531 10.640625 6.238281 9.257812 8.050781 9 C 10.898438 8.570312 15.648438 8.050781 21 8.050781 C 26.351562 8.050781 31.015625 8.570312 33.949219 9 C 35.761719 9.257812 37.230469 10.640625 37.574219 12.453125 C 37.921875 14.4375 38.351562 17.375 38.351562 21 C 38.265625 24.625 37.921875 27.5625 37.574219 29.546875 Z M 37.574219 29.546875 "/>
<path style=" stroke:none;fill-rule:nonzero;fill:rgb(100%,100%,100%);fill-opacity:1;" d="M 17.546875 27.042969 L 17.546875 14.957031 L 27.90625 21 Z M 17.546875 27.042969 "/>
</g>
</svg>
