<svg width="114" height="122" viewBox="0 0 114 122" fill="none" xmlns="http://www.w3.org/2000/svg">
<g clip-path="url(#clip0_32:44)">
<path d="M99.8684 22.5629L65.4924 2.72013C62.4033 0.935012 58.8985 -0.00485229 55.3307 -0.00485229C51.763 -0.00485229 48.2582 0.935012 45.1691 2.72013L10.8143 22.5629C7.72594 24.3456 5.1614 26.9099 3.37855 29.9981C1.5957 33.0864 0.657382 36.5896 0.65796 40.1554V79.8375C0.656927 83.403 1.59508 86.9059 3.37801 89.9936C5.16094 93.0814 7.72574 95.645 10.8143 97.4265L45.1691 117.283C48.2565 119.066 51.7587 120.004 55.3237 120.004C58.8887 120.004 62.3909 119.066 65.4782 117.283L99.8543 97.4406C102.947 95.6592 105.516 93.094 107.301 90.0035C109.087 86.9131 110.026 83.4067 110.025 79.8375V40.1554C110.025 36.5897 109.086 33.0868 107.303 29.9987C105.52 26.9106 102.956 24.3461 99.8684 22.5629ZM55.3572 89.7713C51.6712 71.9471 42.0465 55.9009 28.0571 44.2568C36.8089 47.4075 46.0415 49.014 55.3431 49.0047C64.6399 49.0114 73.8674 47.4049 82.615 44.2568C68.6348 55.9042 59.02 71.9503 55.3431 89.7713H55.3572Z" fill="#43C9ED"/>
</g>
<g clip-path="url(#clip1_32:44)">
<path d="M102.868 24.5629L68.4924 4.72013C65.4033 2.93501 61.8985 1.99515 58.3307 1.99515C54.763 1.99515 51.2582 2.93501 48.1691 4.72013L13.8143 24.5629C10.7259 26.3456 8.1614 28.9099 6.37855 31.9981C4.5957 35.0864 3.65738 38.5896 3.65796 42.1554V81.8375C3.65693 85.403 4.59508 88.9059 6.37801 91.9936C8.16094 95.0814 10.7257 97.645 13.8143 99.4265L48.1691 119.283C51.2565 121.066 54.7587 122.004 58.3237 122.004C61.8887 122.004 65.3909 121.066 68.4782 119.283L102.854 99.4406C105.947 97.6592 108.516 95.094 110.301 92.0035C112.087 88.9131 113.026 85.4067 113.025 81.8375V42.1554C113.025 38.5897 112.086 35.0868 110.303 31.9987C108.52 28.9106 105.956 26.3461 102.868 24.5629ZM58.3572 91.7713C54.6712 73.9471 45.0465 57.9009 31.0571 46.2568C39.8089 49.4075 49.0415 51.014 58.3431 51.0047C67.6399 51.0114 76.8674 49.4049 85.615 46.2568C71.6348 57.9042 62.02 73.9503 58.3431 91.7713H58.3572Z" fill="white"/>
</g>
<defs>
<clipPath id="clip0_32:44">
<rect width="109.367" height="120" fill="white" transform="translate(0.657959)"/>
</clipPath>
<clipPath id="clip1_32:44">
<rect width="109.367" height="120" fill="white" transform="translate(3.65796 2)"/>
</clipPath>
</defs>
</svg>
