<svg xmlns="http://www.w3.org/2000/svg" width="42" height="42"><defs><linearGradient id="a" gradientUnits="userSpaceOnUse" x1="36.31" y1="36.31" x2="144.942" y2="144.942" gradientTransform="scale(.24419)"><stop offset="0" style="stop-color:#2aa4f4;stop-opacity:1"/><stop offset="1" style="stop-color:#007ad9;stop-opacity:1"/></linearGradient></defs><path style="stroke:none;fill-rule:nonzero;fill:#fff;fill-opacity:1" d="M7.352 42A7.349 7.349 0 0 1 0 34.648V7.352A7.349 7.349 0 0 1 7.352 0h27.296A7.349 7.349 0 0 1 42 7.352v27.296A7.349 7.349 0 0 1 34.648 42Zm0 0"/><path style="stroke:none;fill-rule:nonzero;fill:url(#a)" d="M21 3.676C11.43 3.676 3.676 11.43 3.676 21c0 9.57 7.754 17.324 17.324 17.324 9.57 0 17.324-7.754 17.324-17.324 0-9.57-7.754-17.324-17.324-17.324Zm0 0"/><path style="stroke:none;fill-rule:nonzero;fill:#fff;fill-opacity:1" d="M23.344 25.594h4.484l.703-4.555h-5.187v-2.492c0-1.89.62-3.57 2.39-3.57h2.844v-3.973c-.5-.066-1.558-.215-3.555-.215-4.168 0-6.613 2.203-6.613 7.219v3.031h-4.289v4.555h4.285v12.52c.852.124 1.711.21 2.594.21.797 0 1.578-.07 2.344-.176Zm0 0"/></svg>