<?xml version="1.0" encoding="UTF-8"?>
<svg xmlns="http://www.w3.org/2000/svg" xmlns:xlink="http://www.w3.org/1999/xlink" viewBox="0 0 42 42" width="42px" height="42px">
<defs>
<linearGradient id="linear0" gradientUnits="userSpaceOnUse" x1="36.310169" y1="36.310169" x2="144.941711" y2="144.941711" gradientTransform="matrix(0.244186,0,0,0.244186,0,0)">
<stop offset="0" style="stop-color:rgb(16.470589%,64.313728%,95.686275%);stop-opacity:1;"/>
<stop offset="1" style="stop-color:rgb(0%,47.843137%,85.09804%);stop-opacity:1;"/>
</linearGradient>
</defs>
<g id="surface28395364">
<path style=" stroke:none;fill-rule:nonzero;fill:rgb(100%,100%,100%);fill-opacity:1;" d="M 7.351562 42 C 3.289062 42 0 38.710938 0 34.648438 L 0 7.351562 C 0 3.289062 3.289062 0 7.351562 0 L 34.648438 0 C 38.710938 0 42 3.289062 42 7.351562 L 42 34.648438 C 42 38.710938 38.710938 42 34.648438 42 Z M 7.351562 42 "/>
<path style=" stroke:none;fill-rule:nonzero;fill:url(#linear0);" d="M 21 3.675781 C 11.429688 3.675781 3.675781 11.429688 3.675781 21 C 3.675781 30.570312 11.429688 38.324219 21 38.324219 C 30.570312 38.324219 38.324219 30.570312 38.324219 21 C 38.324219 11.429688 30.570312 3.675781 21 3.675781 Z M 21 3.675781 "/>
<path style=" stroke:none;fill-rule:nonzero;fill:rgb(100%,100%,100%);fill-opacity:1;" d="M 23.34375 25.59375 L 27.828125 25.59375 L 28.53125 21.039062 L 23.34375 21.039062 L 23.34375 18.546875 C 23.34375 16.65625 23.964844 14.976562 25.734375 14.976562 L 28.578125 14.976562 L 28.578125 11.003906 C 28.078125 10.9375 27.019531 10.789062 25.023438 10.789062 C 20.855469 10.789062 18.410156 12.992188 18.410156 18.007812 L 18.410156 21.039062 L 14.121094 21.039062 L 14.121094 25.59375 L 18.40625 25.59375 L 18.40625 38.113281 C 19.257812 38.238281 20.117188 38.324219 21 38.324219 C 21.796875 38.324219 22.578125 38.253906 23.34375 38.148438 Z M 23.34375 25.59375 "/>
</g>
</svg>
