<svg width="332" height="92" fill="none" xmlns="http://www.w3.org/2000/svg"><g filter="url(#a)" fill="#43C9ED"><path d="M201.831 89.06c2.645 0 4.213-.94 5.624-2.45l-1.92-1.94c-1.078.98-2.039 1.608-3.606 1.608-2.352 0-3.978-1.96-3.978-4.312v-.039c0-2.352 1.665-4.272 3.978-4.272 1.371 0 2.449.588 3.508 1.548l1.92-2.214c-1.274-1.255-2.822-2.117-5.409-2.117-4.213 0-7.153 3.195-7.153 7.094v.04c0 3.939 2.999 7.055 7.036 7.055Zm12.787 0c3.273 0 5.703-2.45 5.703-5.467v-.04c0-3.017-2.411-5.428-5.664-5.428-3.272 0-5.703 2.45-5.703 5.468v.04c0 3.017 2.411 5.428 5.664 5.428Zm.039-2.567c-1.646 0-2.763-1.352-2.763-2.9v-.04c0-1.547 1.019-2.86 2.724-2.86 1.646 0 2.763 1.352 2.763 2.9v.04c0 1.547-1.019 2.86-2.724 2.86Zm7.919 2.332h2.978v-5.86c0-1.41.686-2.135 1.803-2.135s1.744.725 1.744 2.136v5.86h2.979v-5.86c0-1.411.686-2.136 1.803-2.136s1.744.725 1.744 2.136v5.86h2.979v-6.84c0-2.528-1.333-3.86-3.547-3.86-1.431 0-2.528.587-3.449 1.665-.549-1.058-1.588-1.666-2.959-1.666-1.509 0-2.411.804-3.097 1.686v-1.49h-2.978v10.504Zm18.777-11.66h3.136V74.52h-3.136v2.646Zm.079 11.66h2.978V78.321h-2.978v10.504Zm5.874 0h2.979v-5.86c0-1.41.725-2.135 1.861-2.135 1.137 0 1.803.725 1.803 2.136v5.86h2.979v-6.8c0-2.411-1.313-3.9-3.567-3.9-1.509 0-2.39.803-3.076 1.685v-1.49h-2.979v10.504ZM264.317 92c2.038 0 3.547-.431 4.527-1.411.882-.882 1.333-2.254 1.333-4.135v-8.133h-2.979v1.372c-.804-.882-1.764-1.568-3.39-1.568-2.411 0-4.665 1.764-4.665 4.9v.039c0 3.116 2.215 4.899 4.665 4.899 1.587 0 2.547-.647 3.429-1.705v.51c0 1.88-.96 2.86-2.998 2.86-1.392 0-2.47-.352-3.547-.96l-1.019 2.235c1.332.705 2.939 1.097 4.644 1.097Zm.353-6.506c-1.45 0-2.548-.98-2.548-2.43v-.04c0-1.43 1.098-2.43 2.548-2.43s2.567 1 2.567 2.43v.04c0 1.43-1.117 2.43-2.567 2.43Zm19.432 3.527c2.959 0 5.037-1.528 5.037-4.252v-.04c0-2.39-1.568-3.39-4.351-4.115-2.371-.607-2.959-.901-2.959-1.803v-.039c0-.666.608-1.195 1.764-1.195 1.156 0 2.351.51 3.566 1.352l1.568-2.273c-1.391-1.117-3.096-1.745-5.095-1.745-2.802 0-4.801 1.647-4.801 4.135v.04c0 2.724 1.783 3.488 4.546 4.193 2.293.588 2.763.98 2.763 1.745v.039c0 .803-.744 1.293-1.979 1.293-1.568 0-2.861-.647-4.096-1.666l-1.783 2.136c1.646 1.47 3.743 2.195 5.82 2.195Zm12.594.039c3.273 0 5.703-2.45 5.703-5.467v-.04c0-3.017-2.41-5.428-5.664-5.428-3.272 0-5.702 2.45-5.702 5.468v.04c0 3.017 2.41 5.428 5.663 5.428Zm.039-2.567c-1.646 0-2.763-1.352-2.763-2.9v-.04c0-1.547 1.019-2.86 2.724-2.86 1.646 0 2.763 1.352 2.763 2.9v.04c0 1.547-1.019 2.86-2.724 2.86Zm13.073 2.567c3.272 0 5.703-2.45 5.703-5.467v-.04c0-3.017-2.411-5.428-5.664-5.428-3.273 0-5.703 2.45-5.703 5.468v.04c0 3.017 2.411 5.428 5.664 5.428Zm.039-2.567c-1.646 0-2.763-1.352-2.763-2.9v-.04c0-1.547 1.019-2.86 2.724-2.86 1.646 0 2.763 1.352 2.763 2.9v.04c0 1.547-1.019 2.86-2.724 2.86Zm7.918 2.332h2.979v-5.86c0-1.41.725-2.135 1.862-2.135 1.136 0 1.803.725 1.803 2.136v5.86h2.978v-6.8c0-2.411-1.313-3.9-3.566-3.9-1.509 0-2.391.803-3.077 1.685v-1.49h-2.979v10.504Z"/></g><g filter="url(#b)" fill="#267AC6"><path d="M20.967 61.718c6.214 0 9.845-3.309 12.67-6.94v6.133h12.266V17.656H33.637v24.13c0 5.81-2.986 8.795-7.667 8.795-4.68 0-7.424-2.985-7.424-8.796v-24.13H6.279V45.66c0 9.926 5.407 16.06 14.688 16.06Zm35.915-.807H69.15V44.932c0-10.33 5.003-15.252 13.154-15.252h.645V16.85c-7.263-.323-11.298 3.55-13.8 9.522v-8.715H56.883V60.91Zm53.046.969c7.828 0 13.638-3.067 17.673-8.07l-7.021-6.214c-3.389 3.147-6.375 4.438-10.491 4.438-5.487 0-9.361-2.905-10.571-8.473h30.101c.081-1.13.161-2.26.161-3.228 0-12.267-6.617-23.484-21.062-23.484-12.59 0-21.386 10.168-21.386 22.515v.162c0 13.234 9.603 22.353 22.596 22.353ZM99.356 35.894c.969-5.568 4.277-9.2 9.362-9.2 5.164 0 8.392 3.713 9.119 9.2h-18.48Zm59.983 25.986c8.635 0 13.477-3.31 17.674-7.91l-7.183-7.262c-2.986 2.824-5.81 4.6-9.926 4.6-6.698 0-10.975-5.326-10.975-11.944v-.161c0-6.376 4.358-11.783 10.491-11.783 4.358 0 7.102 1.857 9.845 4.762l7.506-8.07c-4.036-4.52-9.12-7.263-17.27-7.263-13.235 0-22.677 10.168-22.677 22.515v.162c0 12.347 9.523 22.353 22.515 22.353Zm25.686-.969h12.267V47.757l4.277-4.52 11.298 17.674h14.042l-17.028-26.227 16.463-17.028h-14.688l-14.364 15.736V2h-12.267v58.911Zm66.933.969c13.477 0 23.484-10.088 23.484-22.516v-.161c0-12.428-9.926-22.354-23.322-22.354-13.477 0-23.484 10.087-23.484 22.515v.162c0 12.427 9.926 22.353 23.322 22.353Zm.162-10.572c-6.779 0-11.379-5.569-11.379-11.944v-.161c0-6.376 4.197-11.783 11.217-11.783 6.779 0 11.379 5.569 11.379 11.944v.162c0 6.375-4.196 11.782-11.217 11.782Zm32.204 9.603h12.267v-24.13c0-5.81 2.986-8.796 7.666-8.796 4.681 0 7.425 2.986 7.425 8.797v24.13h12.266V32.907c0-9.926-5.407-16.06-14.687-16.06-6.214 0-9.846 3.31-12.67 6.941v-6.133h-12.267V60.91Z"/></g><g filter="url(#c)" fill="#fff"><path d="M17.026 64.978c6.389 0 10.122-3.429 13.026-7.192v6.356h12.612V19.314H30.052V44.32c0 6.021-3.07 9.116-7.882 9.116-4.813 0-7.634-3.095-7.634-9.116V19.314H1.925v29.021c0 10.287 5.559 16.643 15.1 16.643Zm36.927-.836h12.611v-16.56c0-10.705 5.145-15.807 13.525-15.807h.664V18.478c-7.468-.335-11.616 3.68-14.189 9.868v-9.032H53.953v44.828Zm54.539 1.004c8.049 0 14.023-3.178 18.171-8.364l-7.218-6.44c-3.485 3.262-6.555 4.6-10.787 4.6-5.642 0-9.624-3.01-10.87-8.781h30.95c.083-1.171.166-2.342.166-3.346 0-12.712-6.804-24.337-21.656-24.337-12.944 0-21.988 10.537-21.988 23.334v.167c0 13.716 9.874 23.167 23.232 23.167Zm-10.87-26.93c.997-5.772 4.398-9.535 9.626-9.535 5.31 0 8.629 3.847 9.376 9.534H97.623Zm61.673 26.93c8.878 0 13.857-3.43 18.171-8.197l-7.384-7.527c-3.07 2.928-5.974 4.768-10.206 4.768-6.887 0-11.284-5.52-11.284-12.378v-.168c0-6.607 4.48-12.21 10.786-12.21 4.481 0 7.302 1.923 10.123 4.934l7.716-8.363c-4.148-4.684-9.376-7.527-17.756-7.527-13.607 0-23.315 10.537-23.315 23.334v.167c0 12.796 9.791 23.167 23.149 23.167Zm26.41-1.004h12.612V50.51l4.397-4.684 11.616 18.316h14.438L211.26 36.961l16.927-17.647h-15.101l-14.769 16.309V3.089h-12.612v61.053Zm68.818 1.004c13.856 0 24.145-10.455 24.145-23.334v-.168c0-12.88-10.206-23.166-23.979-23.166-13.857 0-24.145 10.454-24.145 23.334v.167c0 12.88 10.205 23.167 23.979 23.167Zm.166-10.956c-6.97 0-11.699-5.771-11.699-12.378v-.168c0-6.607 4.314-12.21 11.533-12.21 6.97 0 11.699 5.77 11.699 12.378v.167c0 6.607-4.314 12.21-11.533 12.21Zm33.111 9.952h12.612V39.135c0-6.021 3.07-9.116 7.883-9.116 4.812 0 7.633 3.095 7.633 9.116v25.007h12.612V35.121c0-10.287-5.559-16.644-15.101-16.644-6.389 0-10.123 3.43-13.027 7.193v-6.356H287.8v44.828Z"/></g><defs><filter id="a" x="194.795" y="74.519" width="132.592" height="18.48" filterUnits="userSpaceOnUse" color-interpolation-filters="sRGB"><feFlood flood-opacity="0" result="BackgroundImageFix"/><feBlend in="SourceGraphic" in2="BackgroundImageFix" result="shape"/><feColorMatrix in="SourceAlpha" values="0 0 0 0 0 0 0 0 0 0 0 0 0 0 0 0 0 0 127 0" result="hardAlpha"/><feOffset dy="1"/><feGaussianBlur stdDeviation=".5"/><feComposite in2="hardAlpha" operator="arithmetic" k2="-1" k3="1"/><feColorMatrix values="0 0 0 0 0.14902 0 0 0 0 0.478431 0 0 0 0 0.776471 0 0 0 1 0"/><feBlend in2="shape" result="effect1_innerShadow_32:47"/></filter><filter id="b" x="4.279" y="0" width="321.669" height="63.88" filterUnits="userSpaceOnUse" color-interpolation-filters="sRGB"><feFlood flood-opacity="0" result="BackgroundImageFix"/><feBlend in="SourceGraphic" in2="BackgroundImageFix" result="shape"/><feGaussianBlur stdDeviation="1" result="effect1_foregroundBlur_32:47"/></filter><filter id="c" x=".925" y="1.089" width="330.616" height="66.057" filterUnits="userSpaceOnUse" color-interpolation-filters="sRGB"><feFlood flood-opacity="0" result="BackgroundImageFix"/><feColorMatrix in="SourceAlpha" values="0 0 0 0 0 0 0 0 0 0 0 0 0 0 0 0 0 0 127 0" result="hardAlpha"/><feOffset dx="1"/><feGaussianBlur stdDeviation="1"/><feComposite in2="hardAlpha" operator="out"/><feColorMatrix values="0 0 0 0 0.160784 0 0 0 0 0.0392157 0 0 0 0 0.388235 0 0 0 1 0"/><feBlend in2="BackgroundImageFix" result="effect1_dropShadow_32:47"/><feBlend in="SourceGraphic" in2="effect1_dropShadow_32:47" result="shape"/><feColorMatrix in="SourceAlpha" values="0 0 0 0 0 0 0 0 0 0 0 0 0 0 0 0 0 0 127 0" result="hardAlpha"/><feOffset dy="1"/><feGaussianBlur stdDeviation="1"/><feComposite in2="hardAlpha" operator="arithmetic" k2="-1" k3="1"/><feColorMatrix values="0 0 0 0 0.262745 0 0 0 0 0.788235 0 0 0 0 0.929412 0 0 0 1 0"/><feBlend in2="shape" result="effect2_innerShadow_32:47"/></filter></defs></svg>