<svg xmlns="http://www.w3.org/2000/svg" width="42" height="42"><defs><radialGradient id="a" gradientUnits="userSpaceOnUse" cx="69.611" cy="149.979" fx="69.611" fy="149.979" r="159.279" gradientTransform="scale(.24419)"><stop offset="0" style="stop-color:#fd5;stop-opacity:1"/><stop offset=".328" style="stop-color:#ff543f;stop-opacity:1"/><stop offset=".348" style="stop-color:#fc5245;stop-opacity:1"/><stop offset=".504" style="stop-color:#e64771;stop-opacity:1"/><stop offset=".643" style="stop-color:#d53e91;stop-opacity:1"/><stop offset=".761" style="stop-color:#cc39a4;stop-opacity:1"/><stop offset=".841" style="stop-color:#c837ab;stop-opacity:1"/></radialGradient><radialGradient id="b" gradientUnits="userSpaceOnUse" cx="42.671" cy="20.514" fx="42.671" fy="20.514" r="105.762" gradientTransform="scale(.24419)"><stop offset="0" style="stop-color:#4168c9;stop-opacity:1"/><stop offset=".999" style="stop-color:#4168c9;stop-opacity:0"/></radialGradient></defs><path style="stroke:none;fill-rule:nonzero;fill:#fffdfd;fill-opacity:1" d="M7.352 42A7.349 7.349 0 0 1 0 34.648V7.352A7.349 7.349 0 0 1 7.352 0h27.296A7.349 7.349 0 0 1 42 7.352v27.296A7.349 7.349 0 0 1 34.648 42Zm0 0"/><path style="stroke:none;fill-rule:nonzero;fill:url(#a)" d="m29.676 36.582-17.324.02c-3.813.003-6.934-3.114-6.938-6.926l-.016-17.324c-.003-3.813 3.114-6.934 6.922-6.938l17.328-.016c3.809-.003 6.93 3.114 6.934 6.922l.02 17.328c.003 3.813-3.114 6.934-6.926 6.934Zm0 0"/><path style="stroke:none;fill-rule:nonzero;fill:url(#b)" d="m29.676 36.582-17.324.02c-3.813.003-6.934-3.114-6.938-6.926l-.016-17.324c-.003-3.813 3.114-6.934 6.922-6.938l17.328-.016c3.809-.003 6.93 3.114 6.934 6.922l.02 17.328c.003 3.813-3.114 6.934-6.926 6.934Zm0 0"/><path style="stroke:none;fill-rule:nonzero;fill:#fff;fill-opacity:1" d="M21 27.063A6.068 6.068 0 0 1 14.937 21 6.068 6.068 0 0 1 21 14.937 6.068 6.068 0 0 1 27.063 21 6.068 6.068 0 0 1 21 27.063Zm0-10.395A4.34 4.34 0 0 0 16.668 21 4.34 4.34 0 0 0 21 25.332 4.34 4.34 0 0 0 25.332 21 4.34 4.34 0 0 0 21 16.668Zm7.797-2.164c0 .719-.582 1.297-1.3 1.297a1.294 1.294 0 0 1-1.298-1.297c0-.719.578-1.3 1.297-1.3a1.3 1.3 0 0 1 1.3 1.3Zm0 0"/><path style="stroke:none;fill-rule:nonzero;fill:#fff;fill-opacity:1" d="M26.2 32.262H15.8a6.07 6.07 0 0 1-6.062-6.063V15.801a6.07 6.07 0 0 1 6.063-6.063h10.398a6.07 6.07 0 0 1 6.063 6.063v10.398a6.07 6.07 0 0 1-6.063 6.063Zm-10.4-20.79a4.333 4.333 0 0 0-4.327 4.329v10.398a4.333 4.333 0 0 0 4.328 4.328h10.398a4.333 4.333 0 0 0 4.328-4.328V15.801a4.333 4.333 0 0 0-4.328-4.328Zm0 0"/></svg>