<svg xmlns="http://www.w3.org/2000/svg" width="42" height="42"><path style="stroke:none;fill-rule:nonzero;fill:#fff;fill-opacity:1" d="M7.352 42A7.349 7.349 0 0 1 0 34.648V7.352A7.349 7.349 0 0 1 7.352 0h27.296A7.349 7.349 0 0 1 42 7.352v27.296A7.349 7.349 0 0 1 34.648 42Zm0 0"/><path style="stroke:none;fill-rule:nonzero;fill:#03a9f4;fill-opacity:1" d="M36.555 10.996A12.931 12.931 0 0 1 32.883 12a6.369 6.369 0 0 0 2.812-3.508 12.857 12.857 0 0 1-4.058 1.535 6.374 6.374 0 0 0-4.653-1.996c-3.523 0-6.382 2.832-6.382 6.328 0 .493.058.973.168 1.442A18.197 18.197 0 0 1 7.613 9.187a6.315 6.315 0 0 0 1.973 8.453 6.516 6.516 0 0 1-2.895-.788v.074c0 3.066 2.204 5.62 5.122 6.203a6.271 6.271 0 0 1-1.68.226c-.41 0-.813-.046-1.203-.113a6.398 6.398 0 0 0 5.96 4.395 12.902 12.902 0 0 1-7.925 2.707c-.516 0-1.024-.032-1.524-.09a18.252 18.252 0 0 0 9.786 2.84c11.742 0 18.164-9.64 18.164-18.004 0-.274-.008-.547-.024-.817a12.59 12.59 0 0 0 3.188-3.277"/></svg>