<?xml version="1.0" encoding="UTF-8"?>
<svg xmlns="http://www.w3.org/2000/svg" xmlns:xlink="http://www.w3.org/1999/xlink" viewBox="0 0 42 42" width="42px" height="42px">
<g id="surface28407863">
<path style=" stroke:none;fill-rule:nonzero;fill:rgb(100%,100%,100%);fill-opacity:1;" d="M 7.351562 42 C 3.289062 42 0 38.710938 0 34.648438 L 0 7.351562 C 0 3.289062 3.289062 0 7.351562 0 L 34.648438 0 C 38.710938 0 42 3.289062 42 7.351562 L 42 34.648438 C 42 38.710938 38.710938 42 34.648438 42 Z M 7.351562 42 "/>
<path style=" stroke:none;fill-rule:nonzero;fill:rgb(1.176471%,66.274512%,95.686275%);fill-opacity:1;" d="M 36.554688 10.996094 C 35.410156 11.503906 34.179688 11.839844 32.882812 12 C 34.203125 11.21875 35.21875 9.96875 35.695312 8.492188 C 34.460938 9.214844 33.09375 9.746094 31.636719 10.027344 C 30.476562 8.796875 28.820312 8.03125 26.984375 8.03125 C 23.460938 8.03125 20.601562 10.863281 20.601562 14.359375 C 20.601562 14.851562 20.660156 15.332031 20.769531 15.800781 C 15.464844 15.535156 10.761719 13.011719 7.613281 9.1875 C 7.058594 10.121094 6.75 11.21875 6.75 12.371094 C 6.75 14.566406 7.871094 16.5 9.585938 17.640625 C 8.539062 17.609375 7.554688 17.316406 6.691406 16.851562 C 6.691406 16.871094 6.691406 16.898438 6.691406 16.925781 C 6.691406 19.992188 8.894531 22.546875 11.8125 23.128906 C 11.277344 23.277344 10.714844 23.355469 10.132812 23.355469 C 9.722656 23.355469 9.320312 23.308594 8.929688 23.242188 C 9.742188 25.75 12.101562 27.582031 14.890625 27.636719 C 12.707031 29.328125 9.957031 30.34375 6.964844 30.34375 C 6.449219 30.34375 5.941406 30.3125 5.441406 30.253906 C 8.269531 32.042969 11.625 33.09375 15.226562 33.09375 C 26.96875 33.09375 33.390625 23.453125 33.390625 15.089844 C 33.390625 14.816406 33.382812 14.542969 33.367188 14.273438 C 34.621094 13.386719 35.703125 12.269531 36.554688 10.996094 "/>
</g>
</svg>
