<svg xmlns="http://www.w3.org/2000/svg" width="42" height="42"><path style="stroke:none;fill-rule:nonzero;fill:#fff;fill-opacity:1" d="M7.352 42A7.349 7.349 0 0 1 0 34.648V7.352A7.349 7.349 0 0 1 7.352 0h27.296A7.349 7.349 0 0 1 42 7.352v27.296A7.349 7.349 0 0 1 34.648 42Zm0 0"/><path style="stroke:none;fill-rule:nonzero;fill:#ff3d00;fill-opacity:1" d="M37.574 29.547A4.307 4.307 0 0 1 33.95 33c-2.847.43-7.597.95-12.949.95-5.266 0-10.016-.52-12.95-.95a4.307 4.307 0 0 1-3.624-3.453c-.348-1.985-.692-4.922-.692-8.547 0-3.625.344-6.563.692-8.547A4.307 4.307 0 0 1 8.05 9c2.847-.43 7.597-.95 12.949-.95A91.2 91.2 0 0 1 33.95 9a4.307 4.307 0 0 1 3.624 3.453c.348 1.985.778 4.922.778 8.547-.086 3.625-.43 6.563-.778 8.547Zm0 0"/><path style="stroke:none;fill-rule:nonzero;fill:#fff;fill-opacity:1" d="M17.547 27.043V14.957L27.907 21Zm0 0"/></svg>